HIERARCHY
ROOT Hips
{
	OFFSET 0.00000 0.00000 0.00000
	CHANNELS 6 Xposition Yposition Zposition Zrotation Yrotation Xrotation 
	JOINT LHipJoint
	{
		OFFSET 0 0 0
		CHANNELS 3 Zrotation Yrotation Xrotation
		JOINT LeftUpLeg
		{
			OFFSET 1.75344 -1.53157 0.77399
			CHANNELS 3 Zrotation Yrotation Xrotation
			JOINT LeftLeg
			{
				OFFSET 2.25415 -6.19323 0.00000
				CHANNELS 3 Zrotation Yrotation Xrotation
				JOINT LeftFoot
				{
					OFFSET 2.30342 -6.32861 0.00000
					CHANNELS 3 Zrotation Yrotation Xrotation
					JOINT LeftToeBase
					{
						OFFSET 0.10958 -0.30108 1.49206
						CHANNELS 3 Zrotation Yrotation Xrotation
						End Site
						{
							OFFSET 0.00000 -0.00000 0.77783
						}
					}
				}
			}
		}
	}
	JOINT RHipJoint
	{
		OFFSET 0 0 0
		CHANNELS 3 Zrotation Yrotation Xrotation
		JOINT RightUpLeg
		{
			OFFSET -1.81912 -1.53156 0.77399
			CHANNELS 3 Zrotation Yrotation Xrotation
			JOINT RightLeg
			{
				OFFSET -2.22882 -6.12365 0.00000
				CHANNELS 3 Zrotation Yrotation Xrotation
				JOINT RightFoot
				{
					OFFSET -2.21943 -6.09785 0.00000
					CHANNELS 3 Zrotation Yrotation Xrotation
					JOINT RightToeBase
					{
						OFFSET -0.18931 -0.52012 1.59379
						CHANNELS 3 Zrotation Yrotation Xrotation
						End Site
						{
							OFFSET -0.00000 -0.00000 0.84686
						}
					}
				}
			}
		}
	}
	JOINT LowerBack
	{
		OFFSET 0 0 0
		CHANNELS 3 Zrotation Yrotation Xrotation
		JOINT Spine
		{
			OFFSET -0.00200 1.66634 -0.14248
			CHANNELS 3 Zrotation Yrotation Xrotation
			JOINT Spine1
			{
				OFFSET -0.00875 1.64542 0.09514
				CHANNELS 3 Zrotation Yrotation Xrotation
				JOINT Neck
				{
					OFFSET 0 0 0
					CHANNELS 3 Zrotation Yrotation Xrotation
					JOINT Neck1
					{
						OFFSET 0.02257 1.59605 0.00839
						CHANNELS 3 Zrotation Yrotation Xrotation
						JOINT Head
						{
							OFFSET -0.10214 1.57530 -0.23335
							CHANNELS 3 Zrotation Yrotation Xrotation
							End Site
							{
								OFFSET -0.03588 1.60717 -0.08062
							}
						}
					}
				}
				JOINT LeftShoulder
				{
					OFFSET 0 0 0
					CHANNELS 3 Zrotation Yrotation Xrotation
					JOINT LeftArm
					{
						OFFSET 2.54983 1.10186 0.40078
						CHANNELS 3 Zrotation Yrotation Xrotation
						JOINT LeftForeArm
						{
							OFFSET 4.28840 -0.00000 0.00000
							CHANNELS 3 Zrotation Yrotation Xrotation
							JOINT LeftHand
							{
								OFFSET 3.06552 -0.00000 -0.00000
								CHANNELS 3 Zrotation Yrotation Xrotation
								JOINT LeftFingerBase
								{
									OFFSET 0 0 0
									CHANNELS 3 Zrotation Yrotation Xrotation
									JOINT LeftHandIndex1
									{
										OFFSET 0.75304 -0.00000 0.00000
										CHANNELS 3 Zrotation Yrotation Xrotation
										End Site
										{
											OFFSET 0.60712 -0.00000 0.00000
										}
									}
								}
								JOINT LThumb
								{
									OFFSET 0 0 0
									CHANNELS 3 Zrotation Yrotation Xrotation
									End Site
									{
										OFFSET 0.61639 -0.00000 0.61639
									}
								}
							}
						}
					}
				}
				JOINT RightShoulder
				{
					OFFSET 0 0 0
					CHANNELS 3 Zrotation Yrotation Xrotation
					JOINT RightArm
					{
						OFFSET -2.60909 1.35448 0.21802
						CHANNELS 3 Zrotation Yrotation Xrotation
						JOINT RightForeArm
						{
							OFFSET -4.52172 -0.00000 -0.00000
							CHANNELS 3 Zrotation Yrotation Xrotation
							JOINT RightHand
							{
								OFFSET -2.89140 -0.00000 0.00000
								CHANNELS 3 Zrotation Yrotation Xrotation
								JOINT RightFingerBase
								{
									OFFSET 0 0 0
									CHANNELS 3 Zrotation Yrotation Xrotation
									JOINT RightHandIndex1
									{
										OFFSET -0.68054 -0.00000 0.00000
										CHANNELS 3 Zrotation Yrotation Xrotation
										End Site
										{
											OFFSET -0.54867 -0.00000 0.00000
										}
									}
								}
								JOINT RThumb
								{
									OFFSET 0 0 0
									CHANNELS 3 Zrotation Yrotation Xrotation
									End Site
									{
										OFFSET -0.55705 -0.00000 0.55705
									}
								}
							}
						}
					}
				}
			}
		}
	}
}
MOTION
Frames: 6
Frame Time: .0083333
8.8912 15.0942 42.4238 0 0 0 0 0 0 -21 0 0 0 0 0 0 0 0 0 0 0 0 0 0 21 0 0 0 0 0 0 0 0 0 0 0 0 0 0 0 0 0 0 0 0 0 0 -16 0 0 21 0 0 11 0 0 0 -8 0 0 0 0 0 0 0 0 0 0 0 0 0 0 0 0 0 0 0 0 8 0 0 0 0 0 0 0 0 0 0 0 0 0 0 0 0 0
8.8912 15.0942 42.4238 179.7290 1.3715 177.5640 0.0000 0.0000 0.0000 -24.9157 -16.0844 -1.5977 2.4764 9.7950 28.3153 1.8581 8.2260 -29.8107 0.8404 -5.8478 -16.3434 0.0000 0.0000 0.0000 23.5163 14.2320 -1.1199 -2.4043 -9.6619 27.8886 -1.1740 -15.4551 -31.1468 -0.1612 2.5871 -7.1312 -1.4192 0.4137 5.7325 0.2810 0.4716 -2.6304 1.0375 0.3024 -5.9686 -4.9149 -1.1582 -6.2464 3.9186 -1.3599 6.5428 2.1059 -0.6351 3.3124 -0.0000 0.0000 0.0000 -84.8769 18.1496 38.2778 19.8388 -30.4477 -5.4494 -0.0000 -0.0000 14.9799 12.4754 -33.0660 -6.8830 -7.1250 0.0000 -0.0000 -10.9577 -3.1722 11.7596 -0.0000 0.0000 0.0000 82.4990 -9.9984 53.6853 -18.5867 28.9019 -4.8295 0.0000 0.0000 26.0166 -5.7874 -57.3034 4.8752 7.1250 -0.0000 -0.0000 84.4206 -74.1577 -67.8032
8.8915 15.0964 42.4298 179.5680 1.6185 177.7120 0.0000 0.0000 0.0000 -25.0620 -16.0965 -1.7249 2.4589 9.7628 28.2121 1.8492 8.3766 -29.8500 0.8437 -5.8589 -16.3755 0.0000 0.0000 0.0000 23.2170 14.2374 -1.4988 -2.4322 -9.7135 28.0539 -1.2033 -15.0898 -30.9876 -0.1616 2.5898 -7.1388 -1.5257 0.5341 5.6604 0.2139 0.6233 -2.6966 1.0112 0.3817 -6.0021 -4.9979 -1.1751 -5.9964 4.1156 -1.3971 6.2642 2.1819 -0.6499 3.1751 0.0000 -0.0000 0.0000 -84.9779 18.0179 38.1903 19.6584 -30.2286 -5.3583 -0.0000 -0.0000 15.3365 12.8884 -33.0147 -7.1065 -7.1250 0.0000 -0.0000 -10.7235 -3.1860 11.5018 0.0000 -0.0000 0.0000 82.4462 -9.9678 53.9714 -18.2892 28.5259 -4.6865 0.0000 0.0000 26.6848 -7.8600 -56.4938 6.5664 7.1250 -0.0000 -0.0000 81.2069 -74.8402 -65.3780
8.8909 15.0990 42.4351 179.6340 1.3648 177.7250 0.0000 0.0000 0.0000 -25.0037 -16.3236 -1.7289 2.4662 9.7762 28.2551 1.8602 8.3165 -29.8824 0.8440 -5.8597 -16.3779 0.0000 0.0000 0.0000 23.2617 14.0578 -1.5712 -2.4314 -9.7120 28.0492 -1.2183 -15.0745 -31.0695 -0.1451 2.4547 -6.7640 -1.3718 0.4740 5.7536 0.1977 0.5534 -2.7284 0.9146 0.3416 -6.0850 -4.8747 -1.1782 -5.8372 4.0447 -1.4119 6.0517 2.1313 -0.6585 3.0691 0.0000 0.0000 0.0000 -84.9465 17.9290 38.1086 19.7226 -30.3067 -5.3907 -0.0000 -0.0000 14.7058 10.6780 -32.9948 -5.8626 -7.1250 0.0000 -0.0000 -11.9487 -2.8350 12.8012 0.0000 0.0000 0.0000 82.4127 -10.0016 54.1677 -18.0969 28.2810 -4.5950 0.0000 0.0000 27.3167 -8.3362 -56.4311 6.9609 7.1250 -0.0000 -0.0000 80.9060 -75.0057 -65.2693
8.8904 15.0998 42.4407 179.8080 1.2638 177.7340 0.0000 0.0000 0.0000 -24.8118 -16.4004 -1.7500 2.4640 9.7722 28.2420 1.8518 8.2928 -29.8132 0.8865 -6.0018 -16.7896 0.0000 0.0000 0.0000 23.4473 14.0229 -1.6168 -2.4390 -9.7261 28.0943 -1.2318 -15.0656 -31.1474 -0.1303 2.3266 -6.4092 -1.0959 0.4746 5.8852 0.2168 0.5774 -2.7882 0.7757 0.3441 -6.2212 -4.7074 -1.1748 -5.6654 3.8054 -1.4662 5.8832 2.0137 -0.7151 2.9737 0.0000 0.0000 0.0000 -84.8777 18.0084 38.2851 19.6396 -30.2057 -5.3489 -0.0000 -0.0000 15.3491 11.3140 -32.9365 -6.2084 -7.1250 0.0000 -0.0000 -11.5913 -2.8700 12.4087 0.0000 0.0000 0.0000 82.3614 -10.1444 54.2757 -17.9699 28.1186 -4.5350 0.0000 0.0000 27.9365 -8.0585 -56.4516 6.7296 7.1250 -0.0000 -0.0000 81.0216 -74.9078 -65.2719
8.8927 15.1014 42.4433 179.7880 1.2847 177.8450 0.0000 0.0000 0.0000 -24.8114 -16.4740 -1.8679 2.4674 9.7783 28.2617 1.8018 8.6327 -29.7105 0.9447 -6.1903 -17.3375 0.0000 0.0000 0.0000 23.3992 14.0976 -1.7431 -2.4395 -9.7271 28.0974 -1.2338 -15.0233 -31.1202 -0.1268 2.2956 -6.3232 -1.0488 0.5393 5.9114 0.1951 0.6699 -2.9124 0.7151 0.3901 -6.3686 -4.7684 -1.2429 -5.4599 3.7740 -1.5568 5.7761 2.0087 -0.7639 2.9032 -0.0000 -0.0000 0.0000 -84.8856 18.0179 38.2473 19.6115 -30.1714 -5.3347 -0.0000 -0.0000 15.4751 10.4845 -32.9329 -5.7451 -7.1250 0.0000 -0.0000 -12.0512 -2.7469 12.8982 -0.0000 -0.0000 0.0000 82.3262 -10.3579 54.2592 -17.7493 27.8350 -4.4316 0.0000 0.0000 28.7440 -9.2457 -55.4391 7.6353 7.1250 -0.0000 -0.0000 76.9997 -75.2256 -61.7072
